<svg width="132" height="135" viewBox="0 0 132 135" fill="none" xmlns="http://www.w3.org/2000/svg">
<path d="M128.792 122.557C128.415 120.104 127.742 117.688 127.079 115.363C126.074 111.83 125.153 108.499 125.199 105.048C125.245 102.092 125.991 99.2639 126.747 96.2344C127.373 93.8639 128 91.4568 128.258 88.9581C129.097 81.0137 126 72.7398 120.14 67.2941C118.758 66.0036 117.256 64.8778 115.781 63.7612C113.985 62.4341 112.308 61.1436 110.879 59.6425C111.755 57.272 112.261 54.691 112.261 52.0368V49.2544C112.215 49.0439 112.132 48.8425 111.967 48.7144C111.801 48.5863 111.589 48.5039 111.377 48.5497L110.87 48.5954C109.534 48.7602 108.189 49.0531 106.935 49.4283C106.889 48.7602 106.853 48.1012 106.806 47.4697C106.641 44.6049 106.429 41.6487 105.387 38.8663C104.171 35.6629 101.95 32.9995 99.7757 30.4642C97.1772 27.389 94.7538 24.5151 94.2101 20.9456V20.7351C96.265 10.8778 90.1096 6.8873 86.8016 4.7273C82.4431 1.89916 76.4997 1.73442 71.9845 4.35204C70.3536 5.30391 68.9253 6.55781 67.5892 7.76594C66.0411 9.17543 64.576 10.4659 62.816 11.2988C59.6739 12.7541 55.7853 12.4612 52.0165 12.2141C47.0775 11.8388 41.9266 11.4636 38.0749 14.9141C36.9415 15.9117 36.103 17.1198 35.3105 18.2822C34.5181 19.4446 33.7164 20.5703 32.712 21.4032C30.6203 23.1056 27.773 23.3619 24.7598 23.609C22.9169 23.7737 20.9911 23.9385 19.1481 24.4419C16.8906 25.0642 15.4623 26.2266 13.9143 27.4348C13.4075 27.8466 12.8638 28.2676 12.2833 28.6795C11.325 29.3476 10.4035 29.8419 9.39911 30.3453C8.47765 30.8029 7.51933 31.2971 6.51495 31.9653C3.71371 33.8781 2.36838 36.2487 2.53425 39.0768C2.91204 45.2731 10.8642 51.387 13.6747 53.3822V53.428L13.9235 53.5927C14.0064 53.6385 14.0525 53.6751 14.1354 53.7209H14.1815C15.5176 54.6361 16.8629 55.469 17.8673 55.9266C18.9546 56.4666 20.042 56.9242 21.1753 57.4276C23.8568 58.59 26.3632 59.7158 28.5839 61.3815C30.3807 62.7087 32.0209 64.4568 33.569 66.1226C35.8265 68.5754 38.2131 71.0741 41.3184 72.6483C43.9538 73.9754 46.8011 74.4788 49.5655 74.9731C52.2008 75.4307 54.6703 75.8883 56.8911 76.9683C58.4023 77.7188 59.7752 78.7165 61.2035 79.7965C62.8345 81.0046 64.5484 82.2493 66.5203 83.1188C68.2803 83.8693 70.2891 84.3636 72.2149 84.867C75.311 85.6541 78.5361 86.4503 80.5449 88.1893C81.6322 89.4798 82.8485 90.1846 84.1478 90.3127C85.1522 90.3951 86.0276 90.1022 86.8292 89.9009C86.9951 89.8551 87.1241 89.8185 87.29 89.7727C90.0912 88.9856 93.3163 89.4798 96.1267 91.1822C98.928 92.8846 100.817 95.5114 101.397 98.3761C101.775 100.371 101.646 102.577 101.563 104.783C101.351 108.938 101.149 113.267 104.245 116.388C105.839 118.008 108.686 118.924 110.732 117.468C112.363 116.306 112.612 114.393 112.87 112.691C112.916 112.444 112.953 112.187 112.953 111.986C113.082 111.071 113.579 110.201 114.04 109.826C114.206 109.698 114.372 109.661 114.547 109.698C114.878 109.744 115.256 110.155 115.597 110.741C116.767 112.984 116.555 115.812 116.224 118.521L116.178 118.768C115.8 121.761 115.422 124.836 116.592 127.747C117.348 129.659 118.979 131.279 120.859 132.076C121.614 132.369 122.37 132.533 123.116 132.533C123.863 132.533 124.581 132.369 125.254 132.076C128.691 130.492 129.355 126.172 128.811 122.594L128.792 122.557Z" fill="white"/>
<path d="M123.098 134.995C122.075 134.995 121.006 134.785 119.928 134.373L119.864 134.345C117.33 133.284 115.219 131.142 114.233 128.634C112.824 125.12 113.266 121.568 113.662 118.438L113.708 118.145C113.708 118.072 113.727 118.008 113.736 117.935C113.34 118.493 112.833 119.024 112.179 119.491C108.953 121.779 104.752 120.498 102.43 118.127C98.5594 114.228 98.8266 108.92 99.0386 104.664L99.057 104.179C99.1307 102.238 99.2044 100.408 98.9096 98.8427C98.4673 96.6643 96.9561 94.6325 94.7906 93.3145C92.5976 91.9874 90.1096 91.5664 87.9534 92.1704L87.8797 92.1888C87.8244 92.1979 87.7783 92.2162 87.7323 92.2254C87.6309 92.2528 87.5296 92.2803 87.419 92.3077L87.161 92.381C86.3501 92.6006 85.2443 92.9027 83.9267 92.7928C82.5629 92.6647 80.6094 92.0606 78.7573 89.9555C77.2184 88.7108 74.4725 88.006 71.8095 87.3288L71.2013 87.1732C69.3031 86.6789 67.3404 86.1755 65.5251 85.3976C63.2031 84.3633 61.2588 82.9355 59.7015 81.7823C58.1811 80.6291 57.0109 79.7962 55.7669 79.183C53.9332 78.2952 51.8599 77.8833 49.1324 77.4165L48.9758 77.3891C46.0824 76.8674 43.0968 76.3274 40.1758 74.8538C36.7849 73.124 34.2416 70.5247 31.7168 67.7881C30.3162 66.2871 28.7221 64.5755 27.0911 63.3674C25.1468 61.9121 22.9077 60.8871 20.171 59.6972L19.4338 59.3769C18.5676 59.0016 17.6738 58.6081 16.78 58.1688C15.8033 57.7203 14.5409 56.9698 13.0205 55.9447C12.9007 55.8898 12.8085 55.8349 12.7164 55.7708L12.5413 55.661L11.1683 54.7549V54.645C6.73611 51.3318 0.405697 45.5199 0.018685 39.2138C-0.137963 36.642 0.617633 32.9352 5.07749 29.8965C6.21088 29.146 7.27977 28.5877 8.26573 28.1027C9.0674 27.6999 9.94279 27.2515 10.8458 26.6199C11.3526 26.263 11.8502 25.8786 12.3017 25.5033L12.5689 25.2928C14.0986 24.103 15.8309 22.7484 18.4755 22.0162C20.5027 21.4671 22.576 21.284 24.4097 21.1193H24.5295C27.1556 20.8905 29.6067 20.6891 31.1179 19.4627C31.8366 18.8677 32.5001 17.9342 33.228 16.8725C34.0205 15.7193 35.0064 14.2732 36.3979 13.0376C41.0512 8.86401 46.9762 9.31248 52.2009 9.7152H52.3944C55.7669 9.95316 59.25 10.182 61.7472 9.02876C63.1478 8.36977 64.3917 7.27147 65.8845 5.91689C67.3957 4.55316 68.8977 3.2535 70.7037 2.19181C76.0205 -0.883447 83.0328 -0.709549 88.1746 2.63113C91.6945 4.92842 98.9003 9.64198 96.7441 20.863C97.2786 23.6088 99.3242 26.0342 101.674 28.8349C104.217 31.8003 106.419 34.5186 107.737 37.9874C108.751 40.6966 109.064 43.3874 109.258 46.3162C109.691 46.243 110.133 46.1698 110.566 46.124L111.082 46.0782C111.911 45.9684 112.759 46.1972 113.469 46.7281C113.92 47.0667 114.501 47.6891 114.722 48.7782L114.768 49.0162V52.0457C114.768 54.3796 114.427 56.7043 113.754 58.965C114.851 59.9627 116.086 60.8962 117.274 61.7749L117.781 62.1593C119.126 63.1935 120.527 64.2552 121.845 65.4908C128.249 71.4399 131.658 80.5467 130.746 89.2325C130.47 91.9782 129.778 94.5867 129.17 96.884L129.032 97.4332C128.369 100.106 127.742 102.623 127.705 105.094C127.668 108.261 128.599 111.528 129.493 114.695C130.202 117.175 130.875 119.619 131.271 122.191C131.944 126.63 130.995 132.149 126.286 134.309L126.231 134.327C125.217 134.766 124.158 134.995 123.089 134.995H123.098ZM121.78 129.732C122.72 130.089 123.42 130.108 124.204 129.769C126.369 128.753 126.692 125.458 126.314 122.941C125.964 120.653 125.337 118.383 124.664 116.059C123.669 112.544 122.637 108.929 122.683 105.03C122.729 101.982 123.42 99.1905 124.158 96.2342L124.305 95.6484C124.876 93.4884 125.512 91.0905 125.752 88.7199C126.507 81.5352 123.697 74.0393 118.417 69.1243C117.274 68.0535 115.975 67.065 114.722 66.1132L114.261 65.7562C112.501 64.4566 110.649 63.0471 109.055 61.363L107.986 60.2372L108.52 58.782C109.331 56.5854 109.746 54.3155 109.746 52.0366V51.2952C109.055 51.4325 108.355 51.6064 107.663 51.8077L104.632 52.7138L104.429 49.4372C104.392 48.824 104.355 48.2016 104.309 47.625C104.134 44.6871 103.922 42.0786 103.038 39.7264C102.015 37.0264 100.089 34.665 97.8683 32.0749L97.8315 32.0291C95.15 28.8532 92.3764 25.5674 91.7314 21.3023L91.7038 21.1193V20.4694L91.759 20.2223C93.4637 12.0491 88.6445 8.90062 85.4563 6.82299C81.8534 4.47994 76.9604 4.36096 73.2562 6.50265C71.8648 7.31723 70.5839 8.43384 69.2847 9.60537C67.5523 11.1796 65.949 12.5799 63.9034 13.541C60.2175 15.2525 56.0802 14.9688 52.0719 14.7033L51.8507 14.685C47.1973 14.3281 42.8296 13.9986 39.7612 16.7535C38.8213 17.5864 38.0657 18.6938 37.393 19.6732C36.4808 21.0003 35.5685 22.2816 34.3246 23.3067C31.5878 25.5308 28.0771 25.8237 24.9718 26.0799H24.8704C23.1657 26.2447 21.4057 26.4003 19.8116 26.8305C18.1438 27.2881 17.0564 28.1393 15.6743 29.2193L15.49 29.3566C14.9463 29.805 14.3566 30.2535 13.7392 30.6928C12.5413 31.5166 11.4448 32.0932 10.5141 32.5599C9.73085 32.9535 8.81861 33.4111 7.89715 34.0243C5.18806 35.8732 4.96691 37.7037 5.03142 38.9118C5.24335 42.344 9.01212 46.9843 15.1214 51.3318L15.5821 51.6338C16.9551 52.5765 18.1346 53.2813 18.8901 53.6291L18.9639 53.6657C19.7563 54.0593 20.5672 54.4162 21.4334 54.7915L22.1705 55.1118C25.1929 56.4298 27.7085 57.5738 30.0766 59.3494C32.067 60.823 33.8362 62.7176 35.3935 64.3833C37.6879 66.8728 39.798 69.0328 42.4426 70.3874C44.7002 71.5223 47.2066 71.9799 49.8511 72.4559L49.9894 72.4833C53.0117 73.005 55.5365 73.5084 57.9692 74.6982C59.7568 75.586 61.3509 76.7576 62.7055 77.7827C64.4102 79.0457 65.8661 80.0799 67.5247 80.8121C68.9622 81.4254 70.7406 81.883 72.4545 82.3223L73.0442 82.4779C76.3523 83.3199 79.7709 84.1894 82.1759 86.2854L82.3233 86.4135L82.4523 86.5599C83.0973 87.3196 83.7424 87.7406 84.369 87.8047C84.7652 87.8413 85.2628 87.704 85.8341 87.5484L86.1658 87.4569C86.2487 87.4386 86.2948 87.4203 86.3409 87.4111C86.4238 87.3837 86.5159 87.3654 86.6081 87.3379C90.1004 86.3677 94.0258 86.981 97.3984 89.0311C100.752 91.0721 103.093 94.2847 103.821 97.8542C104.226 100.005 104.143 102.211 104.061 104.334L104.042 104.847C103.849 108.672 103.673 112.26 105.996 114.603C106.853 115.473 108.382 116.013 109.239 115.409C109.921 114.924 110.105 113.944 110.336 112.398L110.363 112.242C110.382 112.123 110.409 112.013 110.409 111.903V111.729L110.428 111.601C110.631 110.137 111.405 108.663 112.418 107.849L112.501 107.785C113.238 107.236 114.114 107.025 114.98 107.199C116.058 107.391 116.989 108.142 117.744 109.45L117.79 109.542C119.311 112.452 119.043 115.83 118.684 118.768L118.638 119.07C118.288 121.834 117.965 124.442 118.905 126.767C119.412 128.039 120.509 129.156 121.789 129.705L121.78 129.732Z" fill="white"/>
<path d="M93.3347 20.3873C95.3067 11.5734 90.4506 7.86661 86.4699 5.24898C82.4892 2.63136 77.0065 2.50322 72.8599 4.91949C69.469 6.87814 67.0363 10.3653 63.4795 11.9853C55.7761 15.5639 45.1425 9.77949 38.8213 15.3992C36.6835 17.312 35.5962 20.1768 33.3386 22.0073C29.533 25.0825 23.8752 24.0025 19.1481 25.3297C16.3469 26.1168 14.8818 27.8283 12.615 29.4025C10.6892 30.812 8.80938 31.4436 6.70845 32.8164C-3.67638 39.5527 12.1082 51.8171 18.0147 54.6453C21.7374 56.4758 25.7181 57.8029 29.0262 60.2558C33.5874 63.6239 36.6006 68.9507 41.6686 71.5225C46.5247 73.9754 52.5141 73.5178 57.4071 75.8883C60.8441 77.5541 63.5624 80.547 67.0824 82.0846C71.5607 84.0432 78.0477 84.2903 81.6967 87.5303" fill="#FF931E"/>
<path d="M67.838 31.5717C65.8292 34.3175 61.4707 34.0246 56.8726 33.6951C52.0626 33.3656 46.5707 32.9904 43.0968 35.9375C41.9266 36.9351 41.3368 38.4727 40.7103 40.0927C39.9178 42.088 39.1161 44.1656 37.1903 45.4195C35.6422 46.3714 33.5874 46.3348 31.5786 46.289C28.3166 46.2066 26.2618 46.289 25.6721 48.7876C25.1284 51.1582 25.2943 53.0253 26.2618 54.4805C28.2337 57.4734 33.4215 58.471 37.9827 59.3497C41.5027 60.0178 44.8107 60.6402 46.7734 62.1321C48.2386 63.2578 49.4917 64.6673 50.7081 66.0036C51.8783 67.2941 53.0117 68.5388 54.311 69.5822C58.2456 72.6209 63.4334 73.7832 68.4646 74.9456H68.5106C74.9977 76.4009 80.4804 84.6382 80.7384 85.0043L80.7845 85.05C81.6598 86.67 82.7103 88.1253 84.0925 88.2534C84.6362 88.2992 85.2627 88.1253 85.9354 87.9239C86.1013 87.8782 86.2671 87.8415 86.4422 87.7592C89.9161 86.8073 93.8139 87.3839 97.1588 89.4249C100.504 91.466 102.853 94.6236 103.526 98.1198C103.941 100.362 103.858 102.733 103.738 105.067C103.572 108.938 103.36 112.59 105.793 115.006C106.751 115.958 108.391 116.544 109.35 115.839C110.188 115.217 110.4 113.972 110.566 112.599C110.612 112.352 110.649 112.096 110.695 111.812C110.907 110.604 111.534 109.03 112.75 108.151C113.423 107.693 114.215 107.483 115.007 107.648C116.058 107.858 117.016 108.6 117.689 109.89C119.2 112.718 118.942 115.958 118.564 119.043L118.518 119.29C118.186 121.99 117.809 124.818 118.767 127.188C119.311 128.515 120.481 129.724 121.826 130.264C122.499 130.511 123.457 130.767 124.462 130.309C126.765 129.312 127.143 125.98 126.719 123.244C126.341 120.919 125.715 118.585 125.042 116.297C124.038 112.764 122.987 109.103 123.07 105.323C123.116 102.083 123.909 98.9619 124.701 95.969C125.291 93.6809 125.917 91.3104 126.166 88.9856C126.959 81.7093 124.075 74.0944 118.712 69.1063C117.412 67.8982 115.91 66.7815 114.482 65.7382C111.386 63.45 108.207 61.0795 106.447 57.5466C104.899 54.4714 104.687 51.1032 104.475 47.7717C104.309 44.9436 104.143 42.2436 103.176 39.7907C102.089 36.9626 99.9508 34.4273 97.9052 32.011C95.4725 29.1829 92.9661 26.19 92.0447 22.529C81.5769 21.8243 74.712 22.1537 67.8472 31.59L67.838 31.5717Z" fill="#FCECD4"/>
<path d="M92.4133 73.3256C92.1645 59.6883 78.9784 48.8334 62.9819 49.1263C63.1938 62.8093 76.3799 73.6185 92.4133 73.3256Z" fill="#4DC359"/>
<path d="M96.9745 57.1073C101.913 50.911 109.949 50.5358 110.372 50.8744C110.833 51.2039 112.003 58.6083 107.064 64.8046C102.125 71.0009 92.9569 73.6643 92.5331 73.3256C92.1184 72.9504 92.0263 63.3036 96.9745 57.1073V57.1073Z" fill="#4DC359"/>
<path d="M49.6668 56.9059C53.9925 56.9059 57.4992 53.4229 57.4992 49.1263C57.4992 44.8297 53.9925 41.3466 49.6668 41.3466C45.3411 41.3466 41.8344 44.8297 41.8344 49.1263C41.8344 53.4229 45.3411 56.9059 49.6668 56.9059Z" fill="#F34337"/>
<path d="M88.2206 49.5473C92.5464 49.5473 96.053 46.0642 96.053 41.7676C96.053 37.471 92.5464 33.988 88.2206 33.988C83.8949 33.988 80.3882 37.471 80.3882 41.7676C80.3882 46.0642 83.8949 49.5473 88.2206 49.5473Z" fill="#F34337"/>
<path d="M110.114 90.8344C114.44 90.8344 117.947 87.3513 117.947 83.0547C117.947 78.7582 114.44 75.2751 110.114 75.2751C105.789 75.2751 102.282 78.7582 102.282 83.0547C102.282 87.3513 105.789 90.8344 110.114 90.8344Z" fill="#F34337"/>
<path d="M127.281 115.327C126.277 111.83 125.355 108.508 125.401 105.094C125.448 102.184 126.157 99.3554 126.95 96.3168C127.576 93.9463 128.203 91.5391 128.461 88.9947C129.299 81.0137 126.203 72.6483 120.297 67.1201C118.914 65.8296 117.366 64.6673 115.901 63.5873C114.141 62.2968 112.51 61.052 111.128 59.5968C111.967 57.2263 112.464 54.691 112.464 52.0734V49.291C112.418 49.0439 112.298 48.7876 112.086 48.6229C111.874 48.4581 111.626 48.3757 111.331 48.4124L110.824 48.4581C109.571 48.6229 108.308 48.87 107.101 49.2086C107.055 48.6229 107.018 48.0463 106.972 47.5063C106.806 44.6415 106.595 41.6395 105.553 38.8113C104.337 35.5713 102.079 32.9079 99.9047 30.3269C97.3523 27.2883 94.9196 24.4235 94.4221 20.9273V20.7625C96.4769 10.7862 90.2755 6.74998 86.9306 4.54422C82.4892 1.71608 76.4628 1.55133 71.9016 4.21472C70.2246 5.16659 68.8424 6.4571 67.4602 7.66523C65.9121 9.03811 64.447 10.3652 62.7331 11.1615C59.637 12.571 55.7853 12.3239 52.0166 12.031C47.0315 11.6557 41.8437 11.2805 37.9459 14.7768C36.8125 15.8201 35.974 17.0191 35.1447 18.1907C34.3522 19.353 33.5966 20.4788 32.5922 21.2659C30.5374 22.9317 27.7361 23.1788 24.723 23.4259C22.8432 23.5907 20.9173 23.7554 19.0744 24.2954C16.7708 24.9635 15.3057 26.0801 13.8037 27.334C13.2969 27.7459 12.7532 28.1669 12.1727 28.5788C11.2512 29.2469 10.2929 29.7046 9.28854 30.2446C8.36709 30.7022 7.40877 31.1964 6.40438 31.8646C3.55707 33.7317 2.17489 36.1479 2.34075 39.0585C2.46975 41.0995 3.80587 46.5818 13.4351 53.4005V53.4463L13.8498 53.7391C13.9327 53.7849 13.9788 53.8215 14.0617 53.8673C15.3978 54.7825 16.78 55.6154 17.7475 56.073C18.8348 56.5764 19.9222 57.0707 21.0556 57.574C23.737 58.7364 26.2434 59.8622 28.4272 61.4822C30.2241 62.8093 31.8182 64.5208 33.3662 66.1774C35.6699 68.6303 38.0104 71.1656 41.1526 72.749C43.7879 74.0761 46.6813 74.6161 49.4825 75.1195C52.0811 75.5771 54.5506 76.0347 56.7713 77.1147C58.2825 77.8195 59.6186 78.8629 61.0837 79.8971C62.7147 81.1052 64.4286 82.3957 66.4466 83.2195C68.2066 83.97 70.2154 84.51 72.1781 84.9676C75.2742 85.7547 78.4532 86.551 80.379 88.2534C81.4664 89.5805 82.7656 90.331 84.1478 90.4134C85.1983 90.4957 86.1197 90.2029 86.9122 89.9557C87.078 89.91 87.207 89.8734 87.3729 89.8276C90.1373 89.0405 93.2795 89.5805 96.0346 91.2371C98.799 92.9029 100.642 95.4747 101.186 98.2663C101.563 100.225 101.434 102.467 101.351 104.591C101.139 108.792 100.937 113.157 104.116 116.361C105.793 118.027 108.723 118.978 110.852 117.441C112.566 116.233 112.824 114.283 113.072 112.535C113.118 112.288 113.155 112.032 113.155 111.83C113.284 110.997 113.745 110.128 114.206 109.789C114.372 109.661 114.455 109.661 114.537 109.707C114.749 109.753 115.081 110 115.413 110.659C116.583 112.819 116.334 115.647 116.003 118.31L115.957 118.557C115.579 121.55 115.201 124.671 116.371 127.664C117.164 129.623 118.841 131.325 120.767 132.076C121.559 132.405 122.361 132.533 123.107 132.533C123.853 132.533 124.618 132.369 125.328 132.076C128.885 130.492 129.557 126.044 129.014 122.429C128.636 120.058 127.963 117.651 127.3 115.317L127.281 115.327ZM118.905 119.024L118.951 118.777C119.329 115.619 119.578 112.334 118.03 109.377C117.274 107.968 116.233 107.089 115.017 106.879C114.095 106.714 113.174 106.925 112.418 107.501C111.082 108.453 110.363 110.165 110.161 111.492C110.114 111.739 110.078 111.995 110.032 112.279C109.866 113.524 109.7 114.695 109.027 115.189C108.318 115.693 106.935 115.189 106.18 114.402C103.922 112.16 104.125 108.618 104.3 104.884C104.429 102.559 104.549 100.143 104.088 97.8544C103.379 94.2391 100.992 90.9534 97.555 88.83C94.118 86.7066 90.0636 86.0842 86.5067 87.0818C86.3409 87.1276 86.175 87.1642 85.9999 87.2466H85.9539C85.3641 87.4113 84.8205 87.5761 84.3597 87.5395C83.1895 87.4571 82.3049 86.0842 81.4756 84.5832L81.4295 84.5008C81.1807 84.1256 75.652 75.7693 68.953 74.2317C64.0508 73.1059 58.9459 71.9893 55.1403 68.9964C53.8871 67.9988 52.7537 66.7907 51.6203 65.5002C50.404 64.173 49.1508 62.7544 47.6396 61.592C45.6309 60.0086 42.2767 59.3863 38.7199 58.7273C34.2785 57.8944 29.3026 56.9425 27.4597 54.1144C26.5843 52.7873 26.4092 51.0391 26.9529 48.8334C27.4136 46.9663 28.63 46.6734 32.3158 46.7557C34.3706 46.8015 36.4992 46.8381 38.1394 45.8039C40.2311 44.4768 41.0236 42.3076 41.8252 40.23C42.415 38.6466 42.9955 37.1913 44.0459 36.2761C47.3079 33.4479 52.6247 33.8232 57.3149 34.1527C62.0052 34.4822 66.4835 34.7751 68.6212 31.8279C75.2742 22.6388 81.8534 22.3459 91.8143 23.014C92.8187 26.5927 95.2882 29.5032 97.6379 32.3313C99.6467 34.7018 101.738 37.2005 102.743 39.9371C103.664 42.3534 103.83 44.971 103.959 47.7534V47.7991C104.005 48.632 104.088 49.5015 104.171 50.3801C98.2277 53.1259 93.7033 58.4893 92.0723 64.8503C90.5243 60.814 87.806 57.153 84.2031 54.2059C78.3426 49.3825 70.5932 46.8015 62.4751 46.9663C62.0973 46.9663 61.6827 47.131 61.4246 47.4239C61.1298 47.7168 61.01 48.092 61.01 48.5039C61.139 55.5696 64.4839 62.1869 70.4273 67.0469C76.1219 71.7056 83.5765 74.2866 91.4826 74.2866C91.6945 74.2866 92.5699 74.2408 92.7358 74.2042C100.227 73.3347 106.466 68.8408 109.82 62.5988C111.156 63.8435 112.667 64.9693 114.132 66.0493C115.551 67.1293 117.016 68.2093 118.279 69.3717C123.512 74.2408 126.277 81.6818 125.521 88.7476C125.272 91.0357 124.683 93.3605 124.056 95.6486C123.264 98.6873 122.462 101.845 122.425 105.085C122.379 108.911 123.43 112.608 124.434 116.187C125.061 118.429 125.733 120.763 126.065 123.051C126.443 125.587 126.148 128.662 124.139 129.54C123.301 129.916 122.462 129.705 121.918 129.495C120.702 128.991 119.698 127.957 119.2 126.749C118.242 124.378 118.61 121.678 118.905 119.015V119.024ZM38.1486 61.6378C41.3276 62.2601 44.3408 62.8002 45.8059 63.9625C47.1052 64.9602 48.1925 66.2049 49.3628 67.4954C50.533 68.8225 51.7954 70.1954 53.2605 71.3669C57.619 74.7351 63.0556 75.9798 68.3356 77.1513C71.4778 77.8561 74.5278 80.73 76.6656 83.1829C75.3663 82.771 74.0302 82.4324 72.8968 82.1395L72.6849 82.0937C70.8419 81.6361 69.082 81.1785 67.6168 80.5561C65.9398 79.8513 64.4378 78.7256 62.8437 77.5632C61.3786 76.4832 59.8305 75.3208 58.0705 74.4879C55.472 73.2432 52.7077 72.7398 49.9893 72.2456C47.3079 71.7422 44.7555 71.2937 42.4979 70.1679C39.8165 68.7951 37.7247 66.5893 35.504 64.1822C34.2048 62.7727 32.8687 61.3174 31.3575 60.0635C33.5321 60.7683 35.8818 61.2259 38.1394 61.6469L38.1486 61.6378ZM23.7923 52.7415C23.9582 53.8673 24.382 54.8649 24.9257 55.7344C25.0547 55.8991 25.1745 56.1096 25.3035 56.2744C24.2991 55.771 23.2486 55.3225 22.2442 54.8649C21.7374 54.6544 21.2399 54.4073 20.7331 54.1968C21.9033 53.8215 22.9538 53.3273 23.7923 52.7415V52.7415ZM72.519 58.4344C72.39 58.8463 72.6019 59.2215 72.9797 59.432C73.4405 59.6425 73.8551 59.8439 74.3158 60.0544C75.2742 60.4663 76.1956 60.8873 77.0802 61.3449C80.4712 62.9649 83.5673 65.2164 86.8385 68.4564C87.5941 69.2069 88.3865 70.0398 89.0592 70.7446L89.4738 71.2022C83.0236 70.8269 76.9604 68.5022 72.3071 64.713C67.6168 60.8873 64.8156 55.9357 64.1429 50.49C64.1429 50.3618 64.189 50.1971 64.272 50.1147C64.3549 50.0324 64.4839 49.9866 64.6037 49.9866H64.6498C71.2658 50.2795 77.5409 52.6042 82.3141 56.5124C86.3317 59.7981 89.05 64.1181 90.1465 68.7402C86.2948 62.7544 80.2685 58.8463 73.4405 57.931C73.0258 57.7663 72.648 58.0134 72.519 58.4344V58.4344ZM95.6292 70.5798C96.2189 69.8293 96.7994 69.0788 97.3892 68.3374L97.2233 68.2093L97.3892 68.3374C99.3611 65.8388 101.37 63.2212 103.71 60.8964C104.005 60.6035 104.042 60.1459 103.793 59.8164C103.581 59.4869 103.121 59.3588 102.743 59.4869C99.6007 60.7774 96.5875 63.7246 94.5787 67.4679C95.537 60.6493 100.061 54.993 106.595 52.4944C107.599 52.1191 108.603 51.8263 109.608 51.5791C109.985 60.4388 104.125 68.2917 95.6292 70.5798ZM63.9863 13.8615C66.1241 12.8639 67.7919 11.3629 69.469 9.87099C70.7682 8.70862 72.0214 7.58286 73.4036 6.79574C77.0065 4.71811 81.7797 4.8371 85.2904 7.08862C89.225 9.66964 92.9477 12.7449 91.5655 19.9754C81.4756 19.353 73.7353 19.7283 66.2347 30.034C65.0644 31.654 61.5905 31.4069 57.5729 31.1598C52.3022 30.7846 46.3496 30.3727 42.1293 34.0246C40.4983 35.3974 39.7888 37.3103 39.0701 39.1774C38.3974 40.8798 37.7708 42.4998 36.5545 43.2961C35.6791 43.8361 34.002 43.8361 32.4079 43.7995C30.694 43.7537 28.6023 43.7171 26.9253 44.5042C26.5106 42.1337 25.2482 39.7632 23.1565 37.6856C21.9862 36.5598 18.0516 32.9079 12.4399 31.9469C12.9836 31.6174 13.4443 31.3246 13.905 31.0317C14.5777 30.574 15.1582 30.1164 15.665 29.7046C17.0011 28.6246 18.1806 27.7093 19.8945 27.2059C21.4886 26.7483 23.2394 26.5835 24.9994 26.4554C28.3074 26.1625 31.7353 25.8696 34.4628 23.6273C35.7989 22.5473 36.7204 21.211 37.605 19.9296C38.3605 18.8496 39.024 17.852 39.9086 17.0649C42.8849 14.4473 47.1973 14.7401 51.7585 15.0696C55.942 15.3625 60.2175 15.6554 63.9863 13.8615V13.8615ZM22.0784 50.2886C20.5672 51.4144 17.3513 52.412 15.4623 51.2863C13.7484 50.0781 12.0713 48.751 10.6523 47.4147C8.3118 45.209 5.50135 41.9232 5.28941 38.9303C5.20648 37.3927 5.83308 36.1022 7.21526 34.9764C12.6611 33.7683 18.0148 36.8069 20.945 39.754C22.1152 40.9622 23.5804 42.8751 23.9213 45.1998C24.2162 47.1951 23.5066 49.1903 22.0784 50.2703V50.2886Z" fill="#3E389F"/>
<path d="M127.281 115.327C126.277 111.83 125.355 108.508 125.401 105.094C125.448 102.184 126.157 99.3554 126.95 96.3168C127.576 93.9463 128.203 91.5391 128.461 88.9947C129.299 81.0137 126.203 72.6483 120.297 67.1201C118.914 65.8296 117.366 64.6673 115.901 63.5873C114.141 62.2968 112.51 61.052 111.128 59.5968C111.967 57.2263 112.464 54.691 112.464 52.0734V49.291C112.418 49.0439 112.298 48.7876 112.086 48.6229C111.874 48.4581 111.626 48.3757 111.331 48.4124L110.824 48.4581C109.571 48.6229 108.308 48.87 107.101 49.2086C107.055 48.6229 107.018 48.0463 106.972 47.5063C106.806 44.6415 106.595 41.6395 105.553 38.8113C104.337 35.5713 102.079 32.9079 99.9047 30.3269C97.3523 27.2883 94.9196 24.4235 94.422 20.9273V20.7625C96.4769 10.7862 90.2755 6.74998 86.9306 4.54422C82.4892 1.71608 76.4628 1.55133 71.9016 4.21472C70.2246 5.16659 68.8424 6.4571 67.4602 7.66523C65.9121 9.03811 64.447 10.3652 62.7331 11.1615C59.637 12.571 55.7853 12.3239 52.0165 12.031C47.0315 11.6557 41.8436 11.2805 37.9459 14.7768C36.8125 15.8201 35.974 17.0191 35.1446 18.1907C34.3522 19.353 33.5966 20.4788 32.5922 21.2659C30.5374 22.9317 27.7361 23.1788 24.723 23.4259C22.8432 23.5907 20.9173 23.7554 19.0744 24.2954C16.7708 24.9635 15.3056 26.0801 13.8037 27.334C13.2969 27.7459 12.7532 28.1669 12.1727 28.5788C11.2512 29.2469 10.2929 29.7046 9.28853 30.2446C8.36707 30.7022 7.40875 31.1964 6.40436 31.8646C3.55706 33.7317 2.17487 36.1479 2.34073 39.0585C2.46974 41.0995 3.80585 46.5818 13.4351 53.4005V53.4463L13.8497 53.7391C13.9327 53.7849 13.9787 53.8215 14.0617 53.8673C15.3978 54.7825 16.78 55.6154 17.7475 56.073C18.8348 56.5764 19.9222 57.0707 21.0555 57.574C23.737 58.7364 26.2434 59.8622 28.4272 61.4822C30.2241 62.8093 31.8182 64.5208 33.3662 66.1774C35.6699 68.6303 38.0104 71.1656 41.1526 72.749C43.7879 74.0761 46.6813 74.6161 49.4825 75.1195C52.081 75.5771 54.5506 76.0347 56.7713 77.1147C58.2825 77.8195 59.6186 78.8629 61.0837 79.8971C62.7147 81.1052 64.4286 82.3957 66.4466 83.2195C68.2066 83.97 70.2153 84.51 72.178 84.9676C75.2741 85.7547 78.4532 86.551 80.379 88.2534C81.4663 89.5805 82.7656 90.331 84.1478 90.4134C85.1982 90.4957 86.1197 90.2029 86.9122 89.9557C87.078 89.91 87.207 89.8734 87.3729 89.8276C90.1373 89.0405 93.2794 89.5805 96.0346 91.2371C98.799 92.9029 100.642 95.4747 101.186 98.2663C101.563 100.225 101.434 102.467 101.351 104.591C101.139 108.792 100.937 113.157 104.116 116.361C105.793 118.027 108.723 118.978 110.852 117.441C112.566 116.233 112.824 114.283 113.072 112.535C113.118 112.288 113.155 112.032 113.155 111.83C113.284 110.997 113.745 110.128 114.206 109.789C114.372 109.661 114.455 109.661 114.537 109.707C114.749 109.753 115.081 110 115.413 110.659C116.583 112.819 116.334 115.647 116.003 118.31L115.957 118.557C115.579 121.55 115.201 124.671 116.371 127.664C117.164 129.623 118.841 131.325 120.767 132.076C121.559 132.405 122.361 132.533 123.107 132.533C123.853 132.533 124.618 132.369 125.328 132.076C128.885 130.492 129.557 126.044 129.014 122.429C128.636 120.058 127.963 117.651 127.3 115.317L127.281 115.327ZM118.905 119.024L118.951 118.777C119.329 115.619 119.578 112.334 118.03 109.377C117.274 107.968 116.233 107.089 115.017 106.879C114.095 106.714 113.174 106.925 112.418 107.501C111.082 108.453 110.363 110.165 110.161 111.492C110.114 111.739 110.078 111.995 110.032 112.279C109.866 113.524 109.7 114.695 109.027 115.189C108.318 115.693 106.935 115.189 106.18 114.402C103.922 112.16 104.125 108.618 104.3 104.884C104.429 102.559 104.549 100.143 104.088 97.8544C103.379 94.2391 100.992 90.9534 97.555 88.83C94.118 86.7066 90.0635 86.0842 86.5067 87.0818C86.3409 87.1276 86.175 87.1642 85.9999 87.2466H85.9538C85.3641 87.4113 84.8205 87.5761 84.3597 87.5395C83.1895 87.4571 82.3049 86.0842 81.4756 84.5832L81.4295 84.5008C81.1807 84.1256 75.6519 75.7693 68.9529 74.2317C64.0508 73.1059 58.9459 71.9893 55.1403 68.9964C53.8871 67.9988 52.7537 66.7907 51.6203 65.5002C50.404 64.173 49.1508 62.7544 47.6396 61.592C45.6308 60.0086 42.2767 59.3863 38.7199 58.7273C34.2785 57.8944 29.3026 56.9425 27.4597 54.1144C26.5843 52.7873 26.4092 51.0391 26.9529 48.8334C27.4136 46.9663 28.6299 46.6734 32.3158 46.7557C34.3706 46.8015 36.4992 46.8381 38.1394 45.8039C40.2311 44.4768 41.0235 42.3076 41.8252 40.23C42.4149 38.6466 42.9955 37.1913 44.0459 36.2761C47.3079 33.4479 52.6247 33.8232 57.3149 34.1527C62.0051 34.4822 66.4834 34.7751 68.6212 31.8279C75.2741 22.6388 81.8534 22.3459 91.8143 23.014C92.8187 26.5927 95.2882 29.5032 97.6379 32.3313C99.6467 34.7018 101.738 37.2005 102.743 39.9371C103.664 42.3534 103.83 44.971 103.959 47.7534V47.7991C104.005 48.632 104.088 49.5015 104.171 50.3801C98.2277 53.1259 93.7033 58.4893 92.0723 64.8503C90.5243 60.814 87.806 57.153 84.2031 54.2059C78.3426 49.3825 70.5931 46.8015 62.4751 46.9663C62.0973 46.9663 61.6826 47.131 61.4246 47.4239C61.1298 47.7168 61.01 48.092 61.01 48.5039C61.139 55.5696 64.4839 62.1869 70.4273 67.0469C76.1219 71.7056 83.5765 74.2866 91.4826 74.2866C91.6945 74.2866 92.5699 74.2408 92.7358 74.2042C100.227 73.3347 106.466 68.8408 109.82 62.5988C111.156 63.8435 112.667 64.9693 114.132 66.0493C115.551 67.1293 117.016 68.2093 118.279 69.3717C123.512 74.2408 126.277 81.6818 125.521 88.7476C125.272 91.0357 124.683 93.3605 124.056 95.6486C123.264 98.6873 122.462 101.845 122.425 105.085C122.379 108.911 123.43 112.608 124.434 116.187C125.061 118.429 125.733 120.763 126.065 123.051C126.443 125.587 126.148 128.662 124.139 129.54C123.301 129.916 122.462 129.705 121.918 129.495C120.702 128.991 119.698 127.957 119.2 126.749C118.242 124.378 118.61 121.678 118.905 119.015V119.024ZM38.1486 61.6378C41.3276 62.2601 44.3408 62.8002 45.8059 63.9625C47.1052 64.9602 48.1925 66.2049 49.3627 67.4954C50.533 68.8225 51.7954 70.1954 53.2605 71.3669C57.619 74.7351 63.0556 75.9798 68.3356 77.1513C71.4777 77.8561 74.5278 80.73 76.6655 83.1829C75.3663 82.771 74.0302 82.4324 72.8968 82.1395L72.6848 82.0937C70.8419 81.6361 69.0819 81.1785 67.6168 80.5561C65.9398 79.8513 64.4378 78.7256 62.8437 77.5632C61.3786 76.4832 59.8305 75.3208 58.0705 74.4879C55.472 73.2432 52.7076 72.7398 49.9893 72.2456C47.3079 71.7422 44.7555 71.2937 42.4979 70.1679C39.8164 68.7951 37.7247 66.5893 35.504 64.1822C34.2048 62.7727 32.8686 61.3174 31.3574 60.0635C33.5321 60.7683 35.8818 61.2259 38.1394 61.6469L38.1486 61.6378ZM23.7923 52.7415C23.9581 53.8673 24.382 54.8649 24.9257 55.7344C25.0547 55.8991 25.1745 56.1096 25.3035 56.2744C24.2991 55.771 23.2486 55.3225 22.2442 54.8649C21.7374 54.6544 21.2398 54.4073 20.733 54.1968C21.9033 53.8215 22.9538 53.3273 23.7923 52.7415V52.7415ZM72.519 58.4344C72.39 58.8463 72.6019 59.2215 72.9797 59.432C73.4404 59.6425 73.8551 59.8439 74.3158 60.0544C75.2741 60.4663 76.1956 60.8873 77.0802 61.3449C80.4712 62.9649 83.5673 65.2164 86.8384 68.4564C87.594 69.2069 88.3865 70.0398 89.0592 70.7446L89.4738 71.2022C83.0236 70.8269 76.9604 68.5022 72.3071 64.713C67.6168 60.8873 64.8156 55.9357 64.1429 50.49C64.1429 50.3618 64.189 50.1971 64.2719 50.1147C64.3549 50.0324 64.4839 49.9866 64.6037 49.9866H64.6497C71.2658 50.2795 77.5409 52.6042 82.3141 56.5124C86.3316 59.7981 89.0499 64.1181 90.1465 68.7402C86.2948 62.7544 80.2684 58.8463 73.4404 57.931C73.0258 57.7663 72.648 58.0134 72.519 58.4344V58.4344ZM95.6292 70.5798C96.2189 69.8293 96.7994 69.0788 97.3891 68.3374L97.2233 68.2093L97.3891 68.3374C99.3611 65.8388 101.37 63.2212 103.71 60.8964C104.005 60.6035 104.042 60.1459 103.793 59.8164C103.581 59.4869 103.121 59.3588 102.743 59.4869C99.6006 60.7774 96.5875 63.7246 94.5787 67.4679C95.537 60.6493 100.061 54.993 106.595 52.4944C107.599 52.1191 108.603 51.8263 109.608 51.5791C109.985 60.4388 104.125 68.2917 95.6292 70.5798ZM63.9863 13.8615C66.1241 12.8639 67.7919 11.3629 69.469 9.87099C70.7682 8.70862 72.0214 7.58286 73.4036 6.79574C77.0065 4.71811 81.7796 4.8371 85.2904 7.08862C89.225 9.66964 92.9477 12.7449 91.5655 19.9754C81.4756 19.353 73.7353 19.7283 66.2346 30.034C65.0644 31.654 61.5905 31.4069 57.5729 31.1598C52.3022 30.7846 46.3496 30.3727 42.1293 34.0246C40.4983 35.3974 39.7888 37.3103 39.0701 39.1774C38.3974 40.8798 37.7708 42.4998 36.5545 43.2961C35.6791 43.8361 34.002 43.8361 32.4079 43.7995C30.694 43.7537 28.6023 43.7171 26.9252 44.5042C26.5106 42.1337 25.2482 39.7632 23.1565 37.6856C21.9862 36.5598 18.0516 32.9079 12.4399 31.9469C12.9836 31.6174 13.4443 31.3246 13.905 31.0317C14.5777 30.574 15.1582 30.1164 15.665 29.7046C17.0011 28.6246 18.1806 27.7093 19.8945 27.2059C21.4886 26.7483 23.2394 26.5835 24.9994 26.4554C28.3074 26.1625 31.7353 25.8696 34.4628 23.6273C35.7989 22.5473 36.7203 21.211 37.6049 19.9296C38.3605 18.8496 39.024 17.852 39.9086 17.0649C42.8849 14.4473 47.1973 14.7401 51.7585 15.0696C55.942 15.3625 60.2175 15.6554 63.9863 13.8615V13.8615ZM22.0784 50.2886C20.5672 51.4144 17.3513 52.412 15.4623 51.2863C13.7484 50.0781 12.0713 48.751 10.6523 47.4147C8.31178 45.209 5.50133 41.9232 5.2894 38.9303C5.20647 37.3927 5.83306 36.1022 7.21525 34.9764C12.6611 33.7683 18.0147 36.8069 20.945 39.754C22.1152 40.9622 23.5803 42.8751 23.9213 45.1998C24.2161 47.1951 23.5066 49.1903 22.0784 50.2703V50.2886Z" fill="#3E389F"/>
<path d="M110.114 73.6551C104.927 73.6551 100.651 77.8561 100.651 83.0547C100.651 88.2534 104.881 92.4544 110.114 92.4544C115.348 92.4544 119.578 88.2534 119.578 83.0547C119.578 77.8561 115.312 73.6551 110.114 73.6551V73.6551ZM116.565 83.0547C116.565 86.5876 113.681 89.4615 110.114 89.4615C106.548 89.4615 103.664 86.5968 103.664 83.0547C103.664 79.5127 106.548 76.648 110.114 76.648C113.681 76.648 116.565 79.5127 116.565 83.0547Z" fill="#3E389F"/>
<path d="M88.2206 51.1215C93.4084 51.1215 97.684 46.9205 97.684 41.7219C97.684 36.5232 93.4545 32.3222 88.2206 32.3222C82.9868 32.3222 78.7573 36.5232 78.7573 41.7219C78.7573 46.9205 82.9868 51.1215 88.2206 51.1215ZM81.7704 41.7676C81.7704 38.2347 84.6546 35.3608 88.2206 35.3608C91.7867 35.3608 94.6708 38.2256 94.6708 41.7676C94.6708 45.3097 91.7867 48.1744 88.2206 48.1744C84.6546 48.1744 81.7704 45.2639 81.7704 41.7676Z" fill="#3E389F"/>
<path d="M49.6668 40.0195C44.479 40.0195 40.2035 44.2205 40.2035 49.4191C40.2035 54.6178 44.433 58.8188 49.6668 58.8188C54.9007 58.8188 59.1302 54.6178 59.1302 49.4191C59.1302 44.2205 54.9007 40.0195 49.6668 40.0195V40.0195ZM56.117 49.3734C56.117 52.9063 53.2329 55.7801 49.6668 55.7801C46.1008 55.7801 43.2166 52.9154 43.2166 49.3734C43.2166 45.8313 46.1008 42.9666 49.6668 42.9666C53.2329 42.9666 56.117 45.8313 56.117 49.3734Z" fill="#3E389F"/>
</svg>
