<?xml version="1.0" encoding="utf-8"?>
<!-- Generator: Adobe Illustrator 26.3.1, SVG Export Plug-In . SVG Version: 6.00 Build 0)  -->
<svg version="1.1" id="Layer_2_00000173841866878999220850000001898824504222173878_"
	 xmlns="http://www.w3.org/2000/svg" xmlns:xlink="http://www.w3.org/1999/xlink" x="0px" y="0px" viewBox="0 0 1464.2 324.4"
	 style="enable-background:new 0 0 1464.2 324.4;" xml:space="preserve">
<style type="text/css">
	.st0{fill:#FFFFFF;}
	.st1{fill:#FF931E;}
	.st2{fill:#FCECD4;}
	.st3{fill:#4DC359;}
	.st4{fill:#F34337;}
	.st5{fill:#3E389F;}
</style>
<g id="Layer_1-2">
	<path class="st0" d="M314.3,293.4c-1-6.2-2.6-12-4.3-18c-2.2-7.6-4.4-15.5-4.3-23.1c0.1-5.9,1.6-12,3.2-18.4l0.3-1.3
		c1.5-5.5,3.1-11.8,3.8-18.4c2.1-20.9-6-42.7-21.3-57c-3.1-3-6.5-5.5-9.7-8l-1.2-0.9c-2.8-2.2-5.8-4.4-8.4-6.8
		c1.6-5.4,2.4-11,2.4-16.6v-7.3l-0.1-0.6c-0.5-2.6-1.9-4.1-3-4.9c-1.7-1.3-3.7-1.9-5.7-1.6l-1.2,0.1c-1,0.2-2.1,0.3-3.1,0.5
		c-0.4-7-1.2-13.5-3.6-20c-3.2-8.3-8.4-14.9-14.5-22c-5.6-6.8-10.5-12.6-11.8-19.2c5.1-27-12.1-38.2-20.6-43.9
		c-12.2-8-28.9-8.4-41.6-1c-4.3,2.6-7.9,5.7-11.5,9c-3.6,3.3-6.6,5.9-9.9,7.5c-5.9,2.8-14.2,2.2-22.3,1.7h-0.5
		c-12.4-1-26.6-2-37.6,8c-3.4,3-5.7,6.4-7.6,9.2c-1.7,2.5-3.3,4.8-5,6.2c-3.6,3-9.4,3.5-15.7,4h-0.3c-4.4,0.4-9.4,0.9-14.2,2.2
		c-6.3,1.8-10.4,5-14.1,7.9l-0.6,0.5c-1.1,0.9-2.3,1.8-3.5,2.7c-2.2,1.5-4.3,2.6-6.2,3.6c-2.3,1.2-4.9,2.5-7.6,4.3
		C2.7,79.2,0.9,88.1,1.3,94.3c0.9,15.1,16.1,29,26.5,36.9v0.3l3.3,2.2l0.4,0.3c0.2,0.1,0.4,0.3,0.7,0.4c3.6,2.4,6.7,4.2,9,5.3
		c2.1,1.1,4.2,2,6.3,2.9l1.8,0.8c6.5,2.8,11.9,5.3,16.5,8.8c3.9,2.9,7.8,7,11.1,10.6c6,6.6,12.1,12.8,20.2,17c7,3.6,14.1,4.8,21,6.1
		l0.4,0.1c6.5,1.2,11.4,2.2,15.8,4.3c3,1.4,5.8,3.4,9.4,6.2c3.7,2.8,8.4,6.2,13.9,8.7c4.4,1.9,9.1,3.1,13.6,4.3l1.5,0.4
		c6.4,1.6,12.9,3.3,16.6,6.3c4.4,5,9,6.5,12.3,6.8c3.1,0.2,5.8-0.5,7.7-1l0.6-0.2c0.3-0.1,0.6-0.1,0.8-0.2c0.1,0,0.2-0.1,0.3-0.1
		h0.2c5.1-1.5,11.1-0.5,16.3,2.7c5.1,3.2,8.7,8.1,9.8,13.3c0.8,3.7,0.6,8.1,0.4,12.8v1.2c-0.5,10.3-1.1,23,8.1,32.3
		c5.6,5.7,15.6,8.8,23.3,3.3c1.5-1.1,2.7-2.4,3.7-3.7c-0.1,0.2-0.1,0.3-0.1,0.5l-0.1,0.7c-0.9,7.5-2,16.1,1.4,24.5
		c2.4,6,7.4,11.1,13.5,13.7l0.2,0.1c2.6,1,5.1,1.5,7.6,1.5c2.5,0,5.1-0.5,7.6-1.7l0.1-0.1C313.6,317.2,315.9,304,314.3,293.4z"/>
	<g>
		<g>
			<path class="st1" d="M223.8,49.1c4.7-21.2-6.9-30-16.4-36.3S184.9,6.2,175,12c-8.1,4.7-13.9,13.1-22.4,17
				c-18.4,8.6-43.7-5.3-58.8,8.2c-5.1,4.6-7.7,11.5-13.1,15.9c-9.1,7.4-22.6,4.8-33.8,8c-6.7,1.9-10.2,6-15.6,9.8
				c-4.6,3.4-9.1,4.9-14.1,8.2c-24.8,16.2,12.9,45.6,27,52.4c8.9,4.4,18.4,7.6,26.3,13.5c10.9,8.1,18.1,20.9,30.1,27.1
				c11.6,5.9,25.9,4.8,37.5,10.5c8.2,4,14.7,11.2,23.1,14.9c10.7,4.7,26.2,5.3,34.8,13.1"/>
		</g>
		<g>
			<path class="st2" d="M163,76c-4.8,6.6-15.2,5.9-26.2,5.1c-11.5-0.8-24.6-1.7-32.8,5.4c-2.8,2.4-4.2,6.1-5.7,10
				c-1.9,4.8-3.8,9.8-8.4,12.8c-3.7,2.3-8.6,2.2-13.4,2.1c-7.8-0.2-12.7,0-14.1,6c-1.3,5.7-0.9,10.2,1.4,13.7
				c4.7,7.2,17.1,9.6,28,11.7c8.4,1.6,16.3,3.1,21,6.7c3.5,2.7,6.5,6.1,9.4,9.3c2.8,3.1,5.5,6.1,8.6,8.6
				c9.4,7.3,21.8,10.1,33.7,12.9h0.1c15.5,3.5,28.5,23.3,29.1,24.2l0.1,0.1c2.1,3.9,4.6,7.4,7.9,7.7c1.3,0.1,2.8-0.3,4.4-0.8
				c0.4-0.1,0.8-0.2,1.2-0.4c8.3-2.3,17.6-0.9,25.6,4c8,4.9,13.6,12.5,15.2,20.9c1,5.4,0.8,11.1,0.5,16.7
				c-0.4,9.3-0.9,18.1,4.9,23.9c2.3,2.3,6.2,3.7,8.5,2c2-1.5,2.5-4.5,2.9-7.8c0.1-0.6,0.2-1.2,0.3-1.9c0.5-2.9,2-6.7,4.9-8.8
				c1.6-1.1,3.5-1.6,5.4-1.2c2.5,0.5,4.8,2.3,6.4,5.4c3.6,6.8,3,14.6,2.1,22l-0.1,0.6c-0.8,6.5-1.7,13.3,0.6,19
				c1.3,3.2,4.1,6.1,7.3,7.4c1.6,0.6,3.9,1.2,6.3,0.1c5.5-2.4,6.4-10.4,5.4-17c-0.9-5.6-2.4-11.2-4-16.7c-2.4-8.5-4.9-17.3-4.7-26.4
				c0.1-7.8,2-15.3,3.9-22.5c1.4-5.5,2.9-11.2,3.5-16.8c1.9-17.5-5-35.7-17.8-47.7c-3.1-2.9-6.7-5.6-10.1-8.1
				c-7.4-5.5-15-11.2-19.2-19.7c-3.7-7.4-4.2-15.5-4.7-23.5c-0.4-6.8-0.8-13.3-3.1-19.2c-2.6-6.8-7.7-12.9-12.6-18.7
				c-5.8-6.8-11.8-14-14-22.8C195.7,52.5,179.4,53.3,163,76L163,76z"/>
		</g>
		<g>
			<path class="st3" d="M221.6,176.2c-0.6-32.7-32-58.8-70.2-58.1C151.9,150.9,183.4,176.9,221.6,176.2z"/>
		</g>
		<g>
			<path class="st3" d="M232.5,137.2c11.8-14.9,30.9-15.8,31.9-15c1.1,0.8,3.9,18.6-7.9,33.4c-11.8,14.9-33.6,21.3-34.6,20.5
				C220.9,175.3,220.7,152.1,232.5,137.2z"/>
		</g>
		<g>
			<circle class="st4" cx="119.7" cy="118.1" r="18.7"/>
		</g>
		<g>
			<circle class="st4" cx="211.6" cy="100.4" r="18.7"/>
		</g>
		<g>
			
				<ellipse transform="matrix(0.4641 -0.8858 0.8858 0.4641 -35.3388 340.6071)" class="st4" cx="263.8" cy="199.5" rx="18.7" ry="18.7"/>
		</g>
	</g>
	<g>
		<g>
			<path class="st0" d="M1090.2,103.6c0.3-0.8,0.4-1.5,0.4-2.1c0-0.9-0.3-1.7-1-2.3c-0.7-0.7-1.4-1-2.3-1h-4.1
				c-1.2,0-2.1,0.3-2.7,0.9c-0.9,0.9-1.1,1.4-1.2,1.6l-27.7,93.6l-29.4-92.4c-0.2-0.8-0.6-1.6-1.4-2.4c-0.8-0.8-1.9-1.2-3.5-1.2
				h-4.3c-1.6,0-2.7,0.4-3.4,1.2c-0.8,0.9-1.3,1.8-1.5,2.5l-29.5,92.3l-27.7-93.5c-0.1-0.3-0.3-0.8-1.2-1.6
				c-0.6-0.6-1.5-0.9-2.7-0.9h-4.1c-0.9,0-1.7,0.3-2.3,1c-0.6,0.7-1,1.4-1,2.3c0,0.6,0.1,1.3,0.4,2.1l30.5,100.8
				c0.6,1.6,1.4,2.9,2.3,3.7c0.8,0.7,2.1,1.1,3.7,1.1h3.7c1.8,0,3.2-0.4,4.2-1.1c1-0.7,1.7-1.9,2.2-3.6L1015,116l28.3,88.6
				c0.5,1.7,1.3,2.9,2.3,3.6c1.1,0.7,2.4,1.1,4.1,1.1h3.7c1.8,0,3.1-0.4,3.9-1.1c0.9-0.7,1.6-2,2.1-3.7L1090.2,103.6L1090.2,103.6z"
				/>
		</g>
		<g>
			<path class="st0" d="M1189.5,133.1c0-4.2-0.7-8.6-1.9-13c-1.3-4.3-3.4-8.4-6.4-11.9c-3-3.6-7.3-6.5-12.7-8.8
				c-5.4-2.3-12.5-3.4-20.8-3.4c-7.1,0-13.2,1-18.1,3s-9,4.4-12.1,7.3s-5.4,5.8-6.9,8.8c-1.4,2.9-2.2,5.3-2.2,7.2
				c0,1.1,0.3,2,0.9,2.8c0.5,0.7,1.5,1,2.9,1h3.5c1.6,0,2.6-0.8,3.2-2.6c1.8-5,5.2-9.1,10-12.2c4.8-3.1,11.1-4.6,18.8-4.6
				c10.5,0,18.3,2.3,23.2,6.9c4.9,4.6,7.4,11,7.4,18.9v8.5l-35.2,4.9c-12.6,1.7-22.9,5.5-30.6,11.4c-7.7,5.7-11.6,13.4-11.6,22.9
				c0,5.9,1.8,11.2,5.2,15.8c3.5,4.7,8.2,8.5,13.9,11.4c5.7,2.8,12.1,4.2,18.8,4.2c7.4,0,13.6-0.9,18.5-2.7c4.9-1.8,8.9-3.9,12-6.5
				c3.1-2.5,5.5-5.1,7.2-7.6l1.8-2.8v13.6c0,1.2,0.3,2.1,1,2.8s1.6,1,2.8,1h3.7c1.2,0,2.1-0.3,2.8-1s1-1.6,1-2.8L1189.5,133.1
				L1189.5,133.1z M1178.3,159.4c0,9.3-1.7,17.1-5,23.2c-3.3,6.2-7.9,10.8-13.6,13.8c-5.6,3-11.9,4.5-18.8,4.5
				c-4.6,0-9.1-0.8-13.5-2.4c-4.4-1.6-8.1-4-11-7.1c-2.9-3.2-4.4-7.4-4.4-12.4c0-6.3,3.2-11.6,9.6-15.7c6.2-4,15.4-6.8,27.4-8.4
				l29.1-4.1L1178.3,159.4L1178.3,159.4L1178.3,159.4z"/>
		</g>
		<g>
			<path class="st0" d="M1229.1,60.7c0-1.2-0.3-2.1-1-2.8c-0.7-0.7-1.6-1-2.8-1h-3.7c-1.2,0-2.1,0.3-2.8,1c-0.7,0.7-1,1.6-1,2.8
				v144.7c0,1.2,0.3,2.1,1,2.8c0.7,0.7,1.6,1,2.8,1h3.7c1.2,0,2.1-0.3,2.8-1s1-1.6,1-2.8V60.7z"/>
		</g>
		<g>
			<path class="st0" d="M1269.2,60.7c0-1.2-0.3-2.1-1-2.8c-0.7-0.7-1.6-1-2.8-1h-3.7c-1.2,0-2.1,0.3-2.8,1c-0.7,0.7-1,1.6-1,2.8
				v144.7c0,1.2,0.3,2.1,1,2.8s1.6,1,2.8,1h3.7c1.2,0,2.1-0.3,2.8-1s1-1.6,1-2.8V60.7z"/>
		</g>
		<g>
			<path class="st0" d="M1386.9,151.1c0-11.4-1.9-21.4-5.7-29.5c-3.8-8.2-9.2-14.6-16.1-18.9c-6.9-4.4-15.4-6.6-25.4-6.6
				c-9.2,0-17.3,2.1-24,6.2c-6.7,4.1-12,9.9-15.8,17.2c-3.8,7.4-6.2,16.1-6.9,25.7c-0.1,2.1-0.2,5-0.2,8.6c0,3.6,0.1,6.5,0.2,8.6
				c1.1,14.6,5.8,26.6,13.9,35.5c8,8.9,19.1,13.5,32.7,13.5c6.7,0,12.8-0.9,18.2-2.8s10-4.2,13.8-7c3.8-2.8,6.7-5.7,8.7-8.6
				c2-2.8,3.1-5.2,3.2-7c0.1-1-0.2-1.7-0.8-2.3c-0.8-0.6-1.7-1-2.7-1h-3.5c-1.8,0-2.6,0.2-3,0.4c-0.3,0.2-1.1,0.8-2.7,3.1
				c-0.8,1.2-2.4,3-4.9,5.3c-2.5,2.3-6,4.5-10.2,6.4s-9.6,2.9-16,2.9c-7.2,0-13.4-1.9-18.7-5.8c-5.2-3.8-9.3-8.8-12.1-14.8
				c-2.8-6-4.4-12.4-4.7-19V158h78.4c1.2,0,2.2-0.3,2.9-1c0.7-0.7,1.1-1.6,1.1-2.7L1386.9,151.1L1386.9,151.1z M1375.7,148h-71.2
				v-1.9c0-7.4,1.4-14.1,4.1-20c2.8-5.9,6.8-10.7,12.1-14.2c5.3-3.5,11.8-5.3,19.2-5.3s13.9,1.8,19.3,5.3c5.4,3.5,9.5,8.3,12.3,14.2
				c2.8,5.9,4.2,12.7,4.2,20L1375.7,148L1375.7,148z"/>
		</g>
		<g>
			<path class="st0" d="M1462.9,202.4c0-1.2-0.3-2.1-1-2.8s-1.6-1-2.8-1h-11.8c-6.9,0-11.8-2.4-14.5-7c-2.6-4.5-3.9-10.7-3.9-18.6
				v-64.3h28c1.2,0,2.1-0.3,2.8-1s1-1.6,1-2.8v-3.1c0-1.2-0.3-2.1-1-2.8c-0.7-0.7-1.6-1-2.8-1h-28V60.7c0-1.2-0.3-2.1-1-2.8
				c-0.7-0.7-1.6-1-2.8-1h-3.7c-1.2,0-2.1,0.3-2.8,1c-0.7,0.7-1,1.6-1,2.8v37.5h-18c-1.2,0-2.1,0.3-2.8,1c-0.7,0.7-1,1.6-1,2.8v3.1
				c0,1.2,0.3,2.1,1,2.8c0.7,0.7,1.6,1,2.8,1h18V174c0,6.7,0.9,12.8,2.6,18.2c1.7,5.3,4.6,9.5,8.8,12.6c4.2,3.1,10,4.6,17.3,4.6
				h12.8c1.2,0,2.1-0.3,2.8-1s1-1.6,1-2.8V202.4L1462.9,202.4z"/>
		</g>
	</g>
	<g>
		<g>
			<path class="st0" d="M482,64.9c-8.7-3.6-19-5.4-30.7-5.4h-59.5c-1.6,0-2.8,0.5-3.8,1.5c-1,1-1.5,2.3-1.5,3.8v127.6v0.1v10.4l0,0
				v0.1c0,3.6,3,6.6,6.6,6.6c3.6,0,6.6-3,6.6-6.6v-0.1l0,0v0.1c0,3.6,3,6.6,6.6,6.6c3.6,0,6.6-3,6.6-6.6v-0.1l0,0v0.1
				c0,3.6,3,6.6,6.6,6.6c3.6,0,6.6-3,6.6-6.6v-0.1l0,0v-23.3l0,0v-23.1h25.4c11.8,0,22-1.7,30.7-5.1c8.8-3.4,15.5-8.7,20.5-15.8
				c4.9-7.1,7.4-16.1,7.4-27.1s-2.7-20.3-7.6-27.5C497.5,74,490.7,68.5,482,64.9L482,64.9z M464.9,122.4c-3.6,3.1-8.5,4.7-14.6,4.7
				h-24.9V89h24.9c7.1,0,12.2,1.8,15.3,5.5s4.7,8.2,4.7,13.6C470.3,114.5,468.5,119.3,464.9,122.4L464.9,122.4z"/>
		</g>
		<g>
			<path class="st0" d="M551.5,52.3h-25.1c-1.5,0-2.8,0.5-3.8,1.6c-1,1-1.5,2.3-1.5,3.9v18.7c0,0.1,0,0.1,0,0.2v5.2l0,0v0.1
				c0,3.3,2.7,6,6,6c3.3,0,6-2.7,6-6v-0.1l0,0v0.1c0,3.3,2.7,6,6,6c3.3,0,6-2.7,6-6v-0.1l0,0v0.1c0,3.3,2.7,6,6,6c3.3,0,6-2.7,6-6
				v-0.1l0,0v-5.2c0-0.1,0-0.1,0-0.2V57.8c0-1.5-0.5-2.8-1.6-3.9C554.4,52.9,553.1,52.3,551.5,52.3L551.5,52.3z"/>
		</g>
		<g>
			<path class="st0" d="M901.5,182.7L901.5,182.7v-45.3c0-6.2-1-12-3-17.2c-2-5.2-5-9.7-9-13.5s-9.3-6.8-15.9-8.9
				c-6.5-2.1-14.4-3.2-23.7-3.2s-16.3,1.1-22.6,3.2c-6.2,2.1-11.4,4.8-15.3,8.1c-4,3.3-6.9,6.6-8.8,9.9c-3.1,5.2-2.9,10.5-2.9,13.5
				c0,3,2.5,5.5,5.5,5.5s5.5-2.5,5.5-5.5l0,0c0,3.1,2.5,5.5,5.5,5.5c3,0,5.5-2.5,5.5-5.5l0,0c0,3.1,2.5,5.5,5.5,5.5s4.9-2.5,5.5-5.5
				c1.2-6.3,3.6-11.8,16.3-11.5c5.7,0.1,9.6,1.3,11.7,4.1c2.1,2.7,3.2,6.6,3.2,11.7v3l-26.6,4.1c-13.6,2.1-24.6,6.1-32.7,12
				c-8.2,5.9-12.4,13.9-12.4,24c0,6.2,1.8,11.9,5.3,16.8c3.5,5,8.3,8.9,14.4,11.8c6,2.9,12.9,4.4,20.6,4.4c5.5,0,10.4-0.7,14.6-2
				c4.2-1.4,7.8-3.2,11-5.4c3.1-2.3,5.6-4.8,7.5-7.5v1.4c0,0.1,0,0.2,0,0.3v7.3l0,0v0.1c0,3.3,2.6,5.9,5.9,5.9
				c3.3,0,5.9-2.6,5.9-5.9v-0.1l0,0v0.1c0,3.3,2.6,5.9,5.9,5.9c3.3,0,5.9-2.6,5.9-5.9v-0.1l0,0v0.1c0,3.3,2.6,5.9,5.9,5.9
				c3.3,0,5.9-2.6,5.9-5.9v-0.1l0,0L901.5,182.7L901.5,182.7z M865.2,160.1c0,5.7-1,10.4-2.9,14.2s-4.5,6.5-7.9,8.3
				c-3.3,1.8-7.1,2.7-11.2,2.7c-2.8,0-5.4-0.5-7.7-1.4c-2.3-0.9-4.1-2.2-5.5-3.9c-1.4-1.7-2.1-3.8-2.1-6.2c0-3.1,1.5-5.9,4.6-8.2
				c3-2.3,7.9-4.1,14.6-5.2l18.1-3.2L865.2,160.1L865.2,160.1z"/>
		</g>
		<g>
			<path class="st0" d="M551.1,97.7c-3.3,0-6,2.7-6,6v0.1l0,0v-0.1c0-3.3-2.7-6-6-6c-3.3,0-6,2.7-6,6v0.1l0,0v-0.1c0-3.3-2.7-6-6-6
				c-3.3,0-6,2.7-6,6v0.1l0,0v99.6l0,0v0.1c0,3.3,2.7,6,6,6c3.3,0,6-2.7,6-6v-0.1l0,0v0.1c0,3.3,2.7,6,6,6c3.3,0,6-2.7,6-6v-0.1l0,0
				v0.1c0,3.3,2.7,6,6,6c3.3,0,6-2.7,6-6v-0.1l0,0v-99.6l0,0v-0.1C557,100.4,554.3,97.7,551.1,97.7z"/>
		</g>
		<g>
			<path class="st0" d="M674.7,186.7c0-2.5-2-4.6-4.6-4.6c0,0,0,0-0.1,0h-11.5h-0.1h-42.5l48.5-53.4c0.8-1,1.6-2,2.1-3
				c0.6-1,0.8-2.1,0.8-3.4v-18.1c0-1.6-0.5-2.8-1.6-3.8c-1.1-1-2.3-1.5-3.7-1.5h-87.3c0,0,0,0-0.1,0c-2.5,0-4.6,2.1-4.6,4.6
				s2,4.6,4.6,4.6c0,0,0,0,0.1,0l0,0c0,0,0,0-0.1,0c-2.5,0-4.6,2.1-4.6,4.6s2,4.6,4.6,4.6c0,0,0,0,0.1,0l0,0c0,0,0,0-0.1,0
				c-2.5,0-4.6,2.1-4.6,4.6s2,4.6,4.6,4.6c0,0,0,0,0.1,0h9.2h0.1h38.5l-49.7,54c-1,1-1.8,2.1-2.5,3.2c-0.6,1.1-1,2.5-1,4.1v16.6
				c0,1.6,0.5,2.8,1.6,3.8c1.1,1,2.3,1.5,3.7,1.5h95.3c0,0,0,0,0.1,0c2.5,0,4.6-2.1,4.6-4.6c0-2.5-2-4.6-4.6-4.6c0,0,0,0-0.1,0l0,0
				c0,0,0,0,0.1,0c2.5,0,4.6-2.1,4.6-4.6c0-2.5-2-4.6-4.6-4.6c0,0,0,0-0.1,0l0,0c0,0,0,0,0.1,0C672.7,191.2,674.7,189.2,674.7,186.7
				L674.7,186.7z"/>
		</g>
		<g>
			<path class="st0" d="M788.8,186.7c0-2.5-2-4.6-4.6-4.6c0,0,0,0-0.1,0h-11.5h-0.1H730l48.5-53.4c0.8-1,1.6-2,2.1-3
				c0.6-1,0.8-2.1,0.8-3.4v-18.1c0-1.6-0.5-2.8-1.6-3.8c-1.1-1-2.3-1.5-3.7-1.5h-87.3c0,0,0,0-0.1,0c-2.5,0-4.6,2.1-4.6,4.6
				s2,4.6,4.6,4.6c0,0,0,0,0.1,0l0,0c0,0,0,0-0.1,0c-2.5,0-4.6,2.1-4.6,4.6s2,4.6,4.6,4.6c0,0,0,0,0.1,0l0,0c0,0,0,0-0.1,0
				c-2.5,0-4.6,2.1-4.6,4.6s2,4.6,4.6,4.6c0,0,0,0,0.1,0h9.2h0.1h38.5l-49.7,54c-1,1-1.8,2.1-2.5,3.2c-0.6,1.1-1,2.5-1,4.1v16.6
				c0,1.6,0.5,2.8,1.6,3.8c1.1,1,2.3,1.5,3.7,1.5H784c0,0,0,0,0.1,0c2.5,0,4.6-2.1,4.6-4.6c0-2.5-2-4.6-4.6-4.6c0,0,0,0-0.1,0l0,0
				c0,0,0,0,0.1,0c2.5,0,4.6-2.1,4.6-4.6c0-2.5-2-4.6-4.6-4.6c0,0,0,0-0.1,0l0,0c0,0,0,0,0.1,0C786.7,191.2,788.8,189.2,788.8,186.7
				L788.8,186.7z"/>
		</g>
	</g>
	<g>
		<path class="st5" d="M304.8,277c-2.4-8.4-4.6-16.4-4.5-24.6c0.1-7,1.8-13.8,3.7-21.1c1.5-5.7,3-11.5,3.6-17.6
			c2-19.2-5.4-39.2-19.5-52.5c-3.3-3.1-7-5.9-10.5-8.5c-4.2-3.1-8.1-6.1-11.4-9.6c2-5.7,3.2-11.8,3.2-18.1v-6.7
			c-0.1-0.6-0.4-1.2-0.9-1.6c-0.5-0.4-1.1-0.6-1.8-0.5l-1.2,0.1c-3,0.4-6,1-8.9,1.8c-0.1-1.4-0.2-2.8-0.3-4.1
			c-0.4-6.9-0.9-14.1-3.4-20.9c-2.9-7.8-8.3-14.2-13.5-20.4c-6.1-7.3-11.9-14.2-13.1-22.6V50c4.9-24-9.9-33.6-17.9-38.9
			c-10.6-6.8-25-7.2-35.8-0.8c-4,2.3-7.3,5.4-10.6,8.3c-3.7,3.3-7.2,6.5-11.3,8.4c-7.4,3.4-16.6,2.8-25.6,2.1
			c-11.9-0.9-24.3-1.8-33.5,6.6C89,38.1,87,41,85,43.8c-1.9,2.8-3.7,5.5-6.1,7.4c-4.9,4-11.6,4.6-18.8,5.2
			c-4.5,0.4-9.1,0.8-13.5,2.1c-5.5,1.6-9,4.3-12.6,7.3c-1.2,1-2.5,2-3.9,3c-2.2,1.6-4.5,2.7-6.9,4c-2.2,1.1-4.5,2.3-6.9,3.9
			C9.7,81.1,6.4,86.9,6.8,93.9c0.3,4.9,3.5,18.1,26.5,34.4v0.1l1,0.7c0.2,0.1,0.3,0.2,0.5,0.3c3.2,2.2,6.5,4.2,8.8,5.3
			c2.6,1.2,5.2,2.4,7.9,3.6c6.4,2.8,12.4,5.5,17.6,9.4c4.3,3.2,8.1,7.3,11.8,11.3c5.5,5.9,11.1,12,18.6,15.8
			c6.3,3.2,13.2,4.5,19.9,5.7c6.2,1.1,12.1,2.2,17.4,4.8c3.6,1.7,6.8,4.2,10.3,6.7c3.9,2.9,8,6,12.8,8c4.2,1.8,9,3.1,13.7,4.2
			c7.4,1.9,15,3.8,19.6,7.9c2.6,3.2,5.7,5,9,5.2c2.5,0.2,4.7-0.5,6.6-1.1c0.4-0.1,0.7-0.2,1.1-0.3c6.6-1.9,14.1-0.6,20.7,3.4
			c6.6,4,11,10.2,12.3,16.9c0.9,4.7,0.6,10.1,0.4,15.2c-0.5,10.1-1,20.6,6.6,28.2c4,4,11,6.3,16.1,2.6c4.1-2.9,4.7-7.6,5.3-11.8
			c0.1-0.6,0.2-1.2,0.2-1.7c0.3-2,1.4-4.1,2.5-4.9c0.4-0.3,0.6-0.3,0.8-0.2c0.5,0.1,1.3,0.7,2.1,2.3c2.8,5.2,2.2,12,1.4,18.4
			l-0.1,0.6c-0.9,7.2-1.8,14.7,1,21.9c1.9,4.7,5.9,8.8,10.5,10.6c1.9,0.8,3.8,1.1,5.6,1.1c1.8,0,3.6-0.4,5.3-1.1
			c8.5-3.8,10.1-14.5,8.8-23.2C308,288.4,306.4,282.6,304.8,277L304.8,277z M284.8,285.9l0.1-0.6c0.9-7.6,1.5-15.5-2.2-22.6
			c-1.8-3.4-4.3-5.5-7.2-6c-2.2-0.4-4.4,0.1-6.2,1.5c-3.2,2.3-4.9,6.4-5.4,9.6c-0.1,0.6-0.2,1.2-0.3,1.9c-0.4,3-0.8,5.8-2.4,7
			c-1.7,1.2-5,0-6.8-1.9c-5.4-5.4-4.9-13.9-4.5-22.9c0.3-5.6,0.6-11.4-0.5-16.9c-1.7-8.7-7.4-16.6-15.6-21.7
			c-8.2-5.1-17.9-6.6-26.4-4.2c-0.4,0.1-0.8,0.2-1.2,0.4h-0.1c-1.4,0.4-2.7,0.8-3.8,0.7c-2.8-0.2-4.9-3.5-6.9-7.1l-0.1-0.2
			c-0.6-0.9-13.8-21-29.7-24.7c-11.7-2.7-23.9-5.4-32.9-12.6c-3-2.4-5.7-5.3-8.4-8.4c-2.9-3.2-5.9-6.6-9.5-9.4
			c-4.8-3.8-12.8-5.3-21.3-6.9c-10.6-2-22.5-4.3-26.9-11.1c-2.1-3.2-2.5-7.4-1.2-12.7c1.1-4.5,4-5.2,12.8-5c4.9,0.1,10,0.2,13.9-2.3
			c5-3.2,6.9-8.4,8.8-13.4c1.4-3.8,2.8-7.3,5.3-9.5c7.8-6.8,20.5-5.9,31.6-5.1c11.2,0.8,21.9,1.5,27-5.6
			c15.9-22.1,31.5-22.8,55.3-21.2c2.4,8.6,8.3,15.6,13.9,22.4c4.8,5.7,9.8,11.7,12.2,18.3c2.2,5.8,2.6,12.1,2.9,18.8v0.1
			c0.1,2,0.3,4.1,0.5,6.2c-14.2,6.6-25,19.5-28.8,34.7c-3.7-9.7-10.2-18.5-18.8-25.6c-14-11.6-32.4-17.8-51.8-17.4
			c-0.9,0-1.9,0.4-2.5,1.1c-0.7,0.7-1,1.6-1,2.6c0.3,17,8.3,32.8,22.5,44.5c13.6,11.2,31.3,17.4,50.2,17.4c0.5,0,2.6-0.1,3-0.2
			c17.9-2.1,32.7-12.9,40.7-27.9c3.2,3,6.8,5.7,10.3,8.3c3.4,2.6,6.9,5.2,9.9,8c12.5,11.7,19.1,29.5,17.3,46.5
			c-0.6,5.5-2,11.1-3.5,16.6c-1.9,7.3-3.8,14.9-3.9,22.7c-0.1,9.2,2.4,18.1,4.8,26.7c1.5,5.4,3.1,11,3.9,16.5
			c0.9,6.1,0.2,13.5-4.6,15.6c-2,0.9-4,0.4-5.3-0.1c-2.9-1.2-5.3-3.7-6.5-6.6C283.2,298.8,284.1,292.3,284.8,285.9L284.8,285.9z
			 M92.2,148.1c7.6,1.5,14.8,2.8,18.3,5.6c3.1,2.4,5.7,5.4,8.5,8.5c2.8,3.2,5.8,6.5,9.3,9.3c10.4,8.1,23.4,11.1,35.9,13.9
			c7.5,1.7,14.8,8.6,19.9,14.5c-3.1-1-6.3-1.8-9-2.5l-0.5-0.1l0,0c-4.4-1.1-8.6-2.2-12.1-3.7c-4-1.7-7.6-4.4-11.4-7.2
			c-3.5-2.6-7.2-5.4-11.4-7.4c-6.2-3-12.8-4.2-19.3-5.4c-6.4-1.2-12.5-2.3-17.9-5c-6.4-3.3-11.4-8.6-16.7-14.4
			c-3.1-3.4-6.3-6.9-9.9-9.9C81.3,146,86.8,147.1,92.2,148.1L92.2,148.1z M58,126.8c0.4,2.7,1.4,5.1,2.7,7.2
			c0.3,0.4,0.6,0.9,0.9,1.3c-2.4-1.2-4.9-2.3-7.3-3.4c-1.2-0.5-2.4-1.1-3.6-1.6C53.5,129.4,56,128.2,58,126.8L58,126.8z
			 M174.2,140.4c-0.3,1,0.2,1.9,1.1,2.4c1.1,0.5,2.1,1,3.2,1.5c2.3,1,4.5,2,6.6,3.1c8.1,3.9,15.5,9.3,23.3,17.1
			c1.8,1.8,3.7,3.8,5.3,5.5l1,1.1c-15.4-0.9-29.8-6.5-40.9-15.6c-11.2-9.2-17.9-21.1-19.5-34.1c0-0.3,0.1-0.7,0.3-0.9
			c0.2-0.2,0.5-0.3,0.8-0.3h0.1c15.8,0.7,30.7,6.3,42.1,15.7c9.6,7.9,16.1,18.3,18.7,29.3c-9.2-14.4-23.6-23.8-39.8-26
			C175.4,138.8,174.5,139.4,174.2,140.4L174.2,140.4z M229.3,169.6c1.4-1.8,2.8-3.6,4.2-5.4l-0.4-0.3l0,0l0.4,0.3
			c4.7-6,9.5-12.3,15.1-17.9c0.7-0.7,0.8-1.8,0.2-2.6c-0.5-0.8-1.6-1.1-2.5-0.8c-7.5,3.1-14.7,10.2-19.5,19.2
			c2.3-16.4,13.1-29.9,28.6-35.9c2.4-0.9,4.8-1.6,7.2-2.2C263.5,145.2,249.6,164.1,229.3,169.6L229.3,169.6z M153.8,33.4
			c5.1-2.4,9.1-6,13.1-9.6c3.1-2.8,6.1-5.5,9.4-7.4c8.6-5,20-4.7,28.3,0.7c9.4,6.2,18.3,13.6,15,30.9c-24.1-1.5-42.5-0.6-60.4,24.2
			c-2.8,3.9-11.1,3.3-20.7,2.7c-12.6-0.9-26.8-1.9-36.8,6.9c-3.9,3.3-5.6,7.9-7.3,12.4c-1.6,4.1-3.1,8-6,9.9
			c-2.1,1.3-6.1,1.3-9.9,1.2c-4.1-0.1-9.1-0.2-13.1,1.7c-1-5.7-4-11.4-9-16.4c-2.8-2.7-12.2-11.5-25.6-13.8c1.3-0.8,2.4-1.5,3.5-2.2
			c1.6-1.1,3-2.2,4.2-3.2c3.2-2.6,6-4.8,10.1-6c3.8-1.1,8-1.5,12.2-1.8c7.9-0.7,16.1-1.4,22.6-6.8c3.2-2.6,5.4-5.8,7.5-8.9
			c1.8-2.6,3.4-5,5.5-6.9c7.1-6.3,17.4-5.6,28.2-4.8l0,0C134.7,37,144.8,37.7,153.8,33.4L153.8,33.4z M53.9,120.9
			c-3.6,2.7-11.3,5.1-15.8,2.4c-4.1-2.9-8.1-6.1-11.5-9.3c-5.6-5.3-12.3-13.2-12.8-20.4c-0.2-3.7,1.3-6.8,4.6-9.5
			c13-2.9,25.8,4.4,32.7,11.5c2.8,2.9,6.3,7.5,7.1,13.1C59,113.5,57.3,118.3,53.9,120.9L53.9,120.9z M124.9,35.7L124.9,35.7z"/>
	</g>
	<g>
		<path class="st5" d="M263.8,177c-12.4,0-22.6,10.1-22.6,22.6c0,12.5,10.1,22.6,22.6,22.6c12.5,0,22.6-10.1,22.6-22.6
			C286.4,187.1,276.2,177,263.8,177L263.8,177z M279.2,199.5c0,8.5-6.9,15.4-15.4,15.4c-8.5,0-15.4-6.9-15.4-15.4
			c0-8.5,6.9-15.4,15.4-15.4C272.3,184.2,279.2,191,279.2,199.5z"/>
	</g>
	<g>
		<path class="st5" d="M211.6,122.9c12.4,0,22.6-10.1,22.6-22.6s-10.1-22.6-22.6-22.6c-12.5,0-22.6,10.1-22.6,22.6
			S199.1,122.9,211.6,122.9z M196.2,100.4c0-8.5,6.9-15.4,15.4-15.4c8.5,0,15.4,6.9,15.4,15.4s-6.9,15.4-15.4,15.4
			C203.1,115.8,196.2,108.8,196.2,100.4z"/>
	</g>
	<g>
		<path class="st5" d="M119.7,96.2c-12.4,0-22.6,10.1-22.6,22.6s10.1,22.6,22.6,22.6s22.6-10.1,22.6-22.6S132.2,96.2,119.7,96.2z
			 M135.1,118.7c0,8.5-6.9,15.4-15.4,15.4s-15.4-6.9-15.4-15.4s6.9-15.4,15.4-15.4S135.1,110.2,135.1,118.7z"/>
	</g>
</g>
</svg>
